HIERARCHY
ROOT Hips
{
	OFFSET 0.000000 0.000000 0.000000
	CHANNELS 6 Xposition Yposition Zposition Zrotation Yrotation Xrotation 
	JOINT LHipJoint
	{
		OFFSET 0.000000 0.000000 0.000000
		CHANNELS 3 Zrotation Yrotation Xrotation
		JOINT LeftUpLeg
		{
			OFFSET 1.363060 -1.794630 0.839290
			CHANNELS 3 Zrotation Yrotation Xrotation
			JOINT LeftLeg
			{
				OFFSET 2.448110 -6.726130 0.000000
				CHANNELS 3 Zrotation Yrotation Xrotation
				JOINT LeftFoot
				{
					OFFSET 2.562200 -7.039590 0.000000
					CHANNELS 3 Zrotation Yrotation Xrotation
					JOINT LeftToeBase
					{
						OFFSET 0.157640 -0.433110 2.322550
						CHANNELS 3 Zrotation Yrotation Xrotation
						End Site
						{
							OFFSET 0.000000 0.000000 0.000000
						}
					}
				}
			}
		}
	}
	JOINT RHipJoint
	{
		OFFSET 0.000000 0.000000 0.000000
		CHANNELS 3 Zrotation Yrotation Xrotation
		JOINT RightUpLeg
		{
			OFFSET -1.305520 -1.794630 0.839290
			CHANNELS 3 Zrotation Yrotation Xrotation
			JOINT RightLeg
			{
				OFFSET -2.542530 -6.985550 0.000000
				CHANNELS 3 Zrotation Yrotation Xrotation
				JOINT RightFoot
				{
					OFFSET -2.568260 -7.056230 0.000000
					CHANNELS 3 Zrotation Yrotation Xrotation
					JOINT RightToeBase
					{
						OFFSET -0.164730 -0.452590 2.363150
						CHANNELS 3 Zrotation Yrotation Xrotation
						End Site
						{
							OFFSET 0.000000 0.000000 0.000000
						}
					}
				}
			}
		}
	}
	JOINT LowerBack
	{
		OFFSET 0.000000 0.000000 0.000000
		CHANNELS 3 Zrotation Yrotation Xrotation
		JOINT Spine
		{
			OFFSET 0.028270 2.035590 -0.193380
			CHANNELS 3 Zrotation Yrotation Xrotation
			JOINT Spine1
			{
				OFFSET 0.056720 2.048850 -0.042750
				CHANNELS 3 Zrotation Yrotation Xrotation
				JOINT Neck
				{
					OFFSET 0.000000 0.000000 0.000000
					CHANNELS 3 Zrotation Yrotation Xrotation
					JOINT Neck1
					{
						OFFSET -0.054170 1.746240 0.172020
						CHANNELS 3 Zrotation Yrotation Xrotation
						JOINT Head
						{
							OFFSET 0.104070 1.761360 -0.123970
							CHANNELS 3 Zrotation Yrotation Xrotation
							End Site
							{
								OFFSET 0.000000 0.000000 0.000000
							}
						}
					}
				}
				JOINT LeftShoulder
				{
					OFFSET 0.000000 0.000000 0.000000
					CHANNELS 3 Zrotation Yrotation Xrotation
					JOINT LeftArm
					{
						OFFSET 3.362410 1.200890 -0.311210
						CHANNELS 3 Zrotation Yrotation Xrotation
						JOINT LeftForeArm
						{
							OFFSET 4.983000 -0.000000 -0.000000
							CHANNELS 3 Zrotation Yrotation Xrotation
							JOINT LeftHand
							{
								OFFSET 3.483560 -0.000000 -0.000000
								CHANNELS 3 Zrotation Yrotation Xrotation
								JOINT LeftFingerBase
								{
									OFFSET 0.000000 0.000000 0.000000
									CHANNELS 3 Zrotation Yrotation Xrotation
									JOINT LeftHandIndex1
									{
										OFFSET 0.715260 -0.000000 -0.000000
										CHANNELS 3 Zrotation Yrotation Xrotation
										End Site
										{
											OFFSET 0.000000 0.000000 0.000000
										}
									}
								}
								JOINT LThumb
								{
									OFFSET 0.000000 0.000000 0.000000
									CHANNELS 3 Zrotation Yrotation Xrotation
									End Site
									{
										OFFSET 0.000000 0.000000 0.000000
									}
								}
							}
						}
					}
				}
				JOINT RightShoulder
				{
					OFFSET 0.000000 0.000000 0.000000
					CHANNELS 3 Zrotation Yrotation Xrotation
					JOINT RightArm
					{
						OFFSET -3.136600 1.374050 -0.404650
						CHANNELS 3 Zrotation Yrotation Xrotation
						JOINT RightForeArm
						{
							OFFSET -5.241900 -0.000000 -0.000000
							CHANNELS 3 Zrotation Yrotation Xrotation
							JOINT RightHand
							{
								OFFSET -3.444170 -0.000000 -0.000000
								CHANNELS 3 Zrotation Yrotation Xrotation
								JOINT RightFingerBase
								{
									OFFSET 0.000000 0.000000 0.000000
									CHANNELS 3 Zrotation Yrotation Xrotation
									JOINT RightHandIndex1
									{
										OFFSET -0.622530 -0.000000 -0.000000
										CHANNELS 3 Zrotation Yrotation Xrotation
										End Site
										{
											OFFSET 0.000000 0.000000 0.000000
										}
									}
								}
								JOINT RThumb
								{
									OFFSET 0.000000 0.000000 0.000000
									CHANNELS 3 Zrotation Yrotation Xrotation
									End Site
									{
										OFFSET 0.000000 0.000000 0.000000
									}
								}
							}
						}
					}
				}
			}
		}
	}
}
MOTION
Frames: 7
Frame Time: 0.008333
6.384966 15.398517 3.967373 -159.214589 -55.287360 173.393985 18.895761 -0.003574 -4.348800 -0.555106 -25.198589 -31.885991 2.445713 25.605032 48.800309 5.390227 -12.306784 -24.645197 5.203000 -13.608800 -41.692300 -23.022252 -1.817682 -4.859852 46.035386 15.158452 -22.618860 1.245505 -23.833315 53.969291 -6.602828 -6.970836 -42.395555 -3.300200 11.165800 -32.841300 4.979842 1.828551 18.999679 0.846059 3.651148 -4.994437 -3.599433 0.905834 -20.504108 3.472298 3.104012 -17.499553 -0.340749 2.542727 12.340423 -2.660800 0.872900 10.713700 7.149741 -6.966671 1.023838 -61.646514 -2.165122 -21.165317 113.751514 -53.977933 -85.561702 -0.446089 -0.452441 1.956230 63.876599 28.458030 45.245200 -7.125000 0.000000 0.000000 68.764300 71.658300 49.869200 -7.800720 6.506720 0.818803 62.233702 -1.833901 19.790564 -109.350086 53.802616 -75.939914 1.292778 -1.180522 -6.487864 -45.224633 -8.186837 6.422600 7.125000 0.000000 0.000000 -16.895600 -38.330500 -2.873200 
6.518986 15.331017 3.803522 -152.007242 -58.329024 166.516500 19.245274 0.210970 -4.638358 2.543021 -24.682626 -34.223483 2.744646 26.196077 48.593010 5.133283 -11.428557 -23.882491 4.614300 -12.935800 -39.128700 -23.445996 -2.038570 -4.777915 50.300956 13.950692 -21.872740 1.561399 -23.852551 53.720290 -7.303078 -7.268166 -44.908703 -3.002300 10.698700 -31.270300 6.138191 0.554663 19.830225 1.805091 2.183795 -4.952154 -1.002206 0.533090 -20.788488 3.166620 3.269506 -17.720341 -0.196872 2.886634 12.237683 -2.587600 1.015500 10.702900 7.340051 -7.080737 0.955384 -62.253667 -6.333947 -18.942544 114.143108 -53.676151 -85.952581 -0.494815 -0.442797 3.152706 63.545164 28.359730 44.745600 -7.125000 0.000000 0.000000 67.408900 71.534100 48.508100 -7.630747 6.727651 0.955842 62.940478 -7.177350 18.433994 -110.891276 53.494280 -77.603102 1.301214 -1.099520 -6.845258 -45.336879 -7.819101 6.175800 7.125000 0.000000 0.000000 -16.936300 -37.978500 -3.032700 
6.636458 15.276254 3.661119 -145.134001 -61.140815 159.662510 19.656519 0.361727 -4.827557 4.713007 -24.628315 -36.696936 2.850720 26.858944 48.500356 4.773760 -9.931052 -23.670274 4.292600 -12.540000 -37.670000 -23.503409 -2.256585 -4.745092 53.186701 11.651419 -21.506017 1.895225 -23.709565 53.083097 -7.972975 -7.221270 -47.393221 -2.480900 9.803100 -28.341500 6.607637 -0.666783 20.812615 2.696234 0.641277 -4.900302 1.565438 0.173317 -21.037735 4.155670 3.516989 -18.075087 -1.099176 2.970035 12.382358 -3.385800 1.056600 10.914500 7.541391 -7.184135 0.881526 -63.014487 -10.474824 -16.644533 114.104186 -53.441981 -85.983899 -0.546113 -0.430447 4.126723 63.681163 28.254310 44.836800 -7.125000 0.000000 0.000000 67.656400 71.414900 48.588500 -7.392559 6.910524 1.086140 63.703145 -12.253886 16.970134 -111.702730 53.310580 -78.513300 1.296176 -1.034192 -7.422524 -45.414410 -7.651186 6.095400 7.125000 0.000000 0.000000 -16.971700 -37.859200 -3.091100 
6.736511 15.231508 3.539619 -138.966866 -63.716371 153.101161 19.986940 0.427202 -4.889976 5.791659 -24.650312 -38.771150 2.680901 27.326760 48.288626 4.301719 -7.579473 -23.756198 4.473100 -12.764700 -38.493900 -23.263565 -2.486309 -4.736005 54.760559 8.477077 -21.231511 2.232408 -23.366809 52.207548 -8.347107 -7.394241 -49.169608 -2.121100 9.113900 -26.152200 6.328231 -1.764698 21.994000 3.508561 -0.852164 -4.939817 4.047715 -0.163534 -21.216925 4.378709 3.713916 -17.365128 -1.042220 3.230732 11.792299 -3.466400 1.221900 10.414700 7.655074 -7.245598 0.816271 -63.839818 -14.621133 -14.279083 113.658022 -53.262950 -85.635481 -0.585706 -0.413673 4.956920 63.761529 28.429655 45.093200 -7.125000 0.000000 0.000000 68.345900 71.518900 49.328300 -7.193657 7.089072 1.224041 64.668715 -17.241051 15.408297 -112.022090 53.209656 -78.932861 1.284085 -0.984384 -8.103664 -45.590882 -7.625742 6.152700 7.125000 0.000000 0.000000 -17.111900 -37.905800 -3.098200 
6.828507 15.185456 3.440219 -132.624464 -65.806120 146.207984 20.245797 0.420963 -4.959858 6.480954 -24.664389 -40.258342 2.415108 27.537136 47.824934 3.861603 -5.977575 -23.350335 4.497900 -12.795100 -38.606100 -22.922444 -2.741134 -4.713691 55.736564 4.981722 -21.277117 2.347616 -23.068218 51.762000 -8.463331 -7.275597 -50.076752 -1.903800 8.662700 -24.745700 6.135360 -2.762811 23.481666 4.131189 -2.142959 -4.916128 6.139341 -0.454079 -21.626021 4.816772 4.024842 -17.807760 -1.421354 3.580206 12.081882 -3.800900 1.383600 10.699700 7.713629 -7.326053 0.750179 -64.740272 -18.468291 -11.812694 112.877192 -53.109518 -84.967818 -0.603589 -0.388585 5.724109 63.149590 28.904516 44.701000 -7.125000 0.000000 0.000000 67.291300 71.839700 48.761000 -6.984016 7.257203 1.341425 65.940483 -21.941032 13.663132 -111.821458 53.176964 -78.845237 1.265648 -0.953648 -8.901410 -45.859684 -7.531754 6.125400 7.125000 0.000000 0.000000 -17.299900 -37.825000 -3.170600 
6.914515 15.138641 3.365425 -126.913934 -67.504923 139.963193 20.398973 0.325678 -5.030315 6.794007 -24.664738 -41.313725 2.110980 27.597627 47.232384 3.572491 -5.436522 -22.704451 4.251900 -12.488300 -37.482100 -22.548712 -2.950005 -4.663716 55.988531 1.652586 -21.960987 2.127771 -22.954957 52.086467 -8.280263 -7.225034 -49.990858 -1.960100 8.782400 -25.117100 5.843161 -3.582402 24.944922 4.565727 -3.195433 -4.889690 7.766432 -0.691977 -22.030848 4.924027 4.063143 -17.961677 -1.589090 3.631648 12.006321 -3.963900 1.409100 10.675100 7.724610 -7.397541 0.697353 -65.897899 -22.185148 -9.360531 111.450142 -53.053180 -83.711170 -0.624398 -0.353969 6.649569 62.660181 29.272736 44.365900 -7.125000 0.000000 0.000000 66.371100 72.063700 48.202400 -6.811967 7.388342 1.463872 67.439297 -26.207407 11.908152 -111.110824 53.228932 -78.246101 1.239776 -0.948172 -10.049356 -46.087129 -7.376219 5.979500 7.125000 0.000000 0.000000 -17.412600 -37.599800 -3.293000 
6.982342 15.093786 3.304130 -122.334914 -68.781533 134.944231 20.443903 0.204714 -5.116706 6.849947 -24.471549 -41.921650 1.844203 27.522004 46.667253 3.406389 -5.255504 -22.193529 4.184400 -12.401800 -37.168800 -22.215514 -3.087270 -4.604357 55.851338 -1.259016 -23.063092 1.612597 -23.016455 53.090814 -8.020691 -7.042470 -49.492371 -2.095400 9.062000 -25.989500 5.391839 -4.186854 26.063061 4.855924 -4.033585 -4.824493 9.029413 -0.889753 -22.125753 4.971808 4.104757 -18.132683 -1.331682 3.714704 11.862780 -3.867500 1.491600 10.600000 7.704959 -7.415554 0.655714 -67.175117 -25.201908 -6.682798 109.920499 -53.023299 -82.299314 -0.653275 -0.317625 7.226660 63.012844 29.513430 44.971400 -7.125000 0.000000 0.000000 68.052300 72.197900 49.860300 -6.693729 7.494165 1.586932 68.861814 -29.800177 10.498633 -109.845319 53.383090 -77.058352 1.208674 -0.981582 -11.520466 -46.020705 -6.961830 5.449300 7.125000 0.000000 0.000000 -17.183100 -36.926200 -3.541700 
